<svg width="24" height="24" viewBox="0 0 24 24" fill="none" xmlns="http://www.w3.org/2000/svg">
<path d="M9.101 22.7977V15.1043H6.627V11.569H9.101V10.0458C9.101 6.10748 10.949 4.28247 14.959 4.28247C15.36 4.28247 15.914 4.32296 16.427 4.38177C16.8112 4.41989 17.1924 4.48269 17.568 4.56976V7.77535C17.3509 7.75582 17.133 7.74425 16.915 7.74064C16.6707 7.73453 16.4264 7.73164 16.182 7.73196C15.475 7.73196 14.923 7.82452 14.507 8.02987C14.2273 8.16514 13.9922 8.37277 13.828 8.62953C13.57 9.03444 13.454 9.58879 13.454 10.3186V11.569H17.373L16.987 13.5965L16.7 15.1043H13.454V23.0532C19.396 22.361 24 17.4837 24 11.569C24 5.18003 18.627 0 12 0C5.373 0 0 5.18003 0 11.569C0 16.9949 3.874 21.5473 9.101 22.7977Z" fill="#530909"/>
</svg>
