<svg width="24" height="24" viewBox="0 0 24 24" fill="none" xmlns="http://www.w3.org/2000/svg">
<path d="M7.03008 0.0809993C5.75328 0.139037 4.88138 0.335518 4.11908 0.624165C3.33028 0.920621 2.66158 1.31831 1.99628 1.96203C1.33108 2.60575 0.921282 3.25082 0.616082 4.01264C0.320682 4.749 0.120482 5.59036 0.0640816 6.82198C0.00768159 8.0536 -0.00481841 8.44955 0.00148159 11.5913C0.00768159 14.7329 0.0220816 15.1267 0.0839816 16.3609C0.144982 17.5916 0.347982 18.432 0.647482 19.1671C0.955482 19.9277 1.36748 20.5721 2.03548 21.2137C2.70338 21.8553 3.37198 22.2494 4.16398 22.5441C4.92718 22.8285 5.80008 23.0224 7.07738 23.0763C8.35468 23.1303 8.76578 23.1428 12.0236 23.1367C15.2814 23.1307 15.6916 23.1168 16.9714 23.0582C18.2514 22.9997 19.1184 22.8026 19.8812 22.5152C20.6701 22.2177 21.339 21.821 22.004 21.1769C22.669 20.5327 23.0785 19.8872 23.3835 19.125C23.6792 18.3892 23.8801 17.5477 23.9355 16.3172C23.9915 15.0823 24.0047 14.688 23.9985 11.5469C23.9922 8.40559 23.9775 8.01176 23.9168 6.77802C23.8561 5.54428 23.6528 4.70649 23.3535 3.97089C23.0451 3.21032 22.6335 2.56641 21.9659 1.92433C21.2982 1.28225 20.628 0.887746 19.8378 0.594375C19.074 0.309488 18.2017 0.115417 16.9244 0.0621997C15.6471 0.00898217 15.236 -0.00480424 11.977 0.00136591C8.71798 0.00734323 8.30998 0.0208404 7.03008 0.0809993ZM7.17028 20.995C6.00028 20.9459 5.36498 20.7585 4.94158 20.6017C4.38098 20.3934 3.98158 20.1417 3.55968 19.7388C3.13768 19.336 2.87858 18.9496 2.65968 18.4103C2.49528 18.0021 2.29728 17.3903 2.24258 16.2623C2.18308 15.0432 2.17058 14.6772 2.16358 11.5884C2.15658 8.49978 2.16888 8.1341 2.22428 6.91453C2.27428 5.78752 2.46988 5.17436 2.63228 4.76636C2.84828 4.22522 3.10848 3.84084 3.52728 3.43438C3.94608 3.02782 4.34568 2.77745 4.90558 2.56641C5.32858 2.40724 5.96308 2.21799 7.13258 2.16429C8.39808 2.10645 8.77728 2.09488 11.9806 2.08813C15.1839 2.08138 15.5641 2.09295 16.8301 2.14674C17.9991 2.19572 18.6354 2.38246 19.0581 2.54009C19.6189 2.74833 20.0181 2.99842 20.4397 3.40295C20.8614 3.80729 21.1213 4.19118 21.3402 4.73213C21.5055 5.13869 21.7019 5.75021 21.7571 6.87848C21.8173 8.09853 21.831 8.4644 21.8367 11.5524C21.8425 14.6403 21.8312 15.0071 21.7757 16.2262C21.7247 17.3542 21.5307 17.9669 21.3677 18.3756C21.1517 18.9159 20.8914 19.3011 20.4723 19.7074C20.0533 20.1137 19.6542 20.364 19.094 20.575C18.6716 20.734 18.0363 20.9238 16.8678 20.9775C15.6022 21.0348 15.223 21.0469 12.0185 21.0536C8.81398 21.0604 8.43578 21.0478 7.17028 20.995ZM16.953 5.38578C16.9535 5.66038 17.0384 5.92868 17.197 6.15674C17.3557 6.3848 17.5809 6.56238 17.8443 6.66701C18.1076 6.77165 18.3972 6.79864 18.6765 6.74458C18.9557 6.69051 19.2121 6.55782 19.4131 6.36329C19.6141 6.16875 19.7508 5.92111 19.8058 5.65168C19.8609 5.38225 19.8318 5.10315 19.7223 4.84966C19.6128 4.59617 19.4277 4.37968 19.1906 4.22759C18.9534 4.07549 18.6748 3.99461 18.39 3.99519C18.0082 3.99595 17.6423 4.14287 17.3728 4.40364C17.1034 4.66441 16.9523 5.01769 16.953 5.38578ZM5.83848 11.5806C5.84518 14.8616 8.60908 17.5152 12.0115 17.5091C15.4141 17.5028 18.1685 14.8384 18.1621 11.5575C18.1556 8.2765 15.3911 5.62208 11.9881 5.62854C8.58508 5.635 5.83208 8.30002 5.83848 11.5806ZM7.99998 11.5765C7.99842 10.8138 8.23149 10.0677 8.66971 9.43273C9.10793 8.79772 9.73163 8.30226 10.4619 8.00899C11.1922 7.71572 11.9963 7.63781 12.7726 7.78513C13.5488 7.93244 14.2623 8.29835 14.8228 8.8366C15.3833 9.37484 15.7657 10.0612 15.9216 10.809C16.0774 11.5567 15.9998 12.3323 15.6985 13.0375C15.3972 13.7427 14.8858 14.346 14.2289 14.771C13.572 15.196 12.7991 15.4237 12.008 15.4252C11.4827 15.4263 10.9623 15.3275 10.4766 15.1347C9.99082 14.9418 9.54925 14.6586 9.17706 14.3012C8.80487 13.9438 8.50935 13.5192 8.30739 13.0517C8.10542 12.5842 8.00097 12.0829 7.99998 11.5765Z" fill="#530909"/>
</svg>
